<?xml version="1.0" encoding="utf-8"?>
<!-- Generator: Adobe Illustrator 21.1.0, SVG Export Plug-In . SVG Version: 6.00 Build 0)  -->
<svg version="1.0" id="Layer_1" xmlns="http://www.w3.org/2000/svg" xmlns:xlink="http://www.w3.org/1999/xlink" x="0px" y="0px"
	 viewBox="0 0 133.6 181.6" enable-background="new 0 0 133.6 181.6" xml:space="preserve">
<g>
	<path fill="#FFFFFF" d="M68.6,0.3c6.1,0.8,10.1,4.5,12.3,10c0.7,1.7,1.3,2,3,1.8c7.1-0.8,14.5,4.2,16.3,11
		c2.1,7.8-3,15.9-11.3,17.9c-3,0.7-3,0.7-3,3.8c0,4.3,0,8.7,0,13c0,0.3,0.2,0.7-0.4,1c-1-2.7-1.4-5.5-2-8.3c-0.5-2.5-1-5.1-1.5-7.7
		c-0.2-1-0.6-1.6-1.6-2c-1.3-0.5-2.5-1.3-3.6-2.6c3.2,0.1,6.1,0,9-0.4c5.5-0.7,9.2-4.2,9.8-9.2c0.7-5.5-1.8-10.6-6.3-12.6
		c-3.2-1.4-6.5-0.8-9.7-0.3c-2.4,0.4-4.7,1.1-7.2,1.9c1.5-1.8,3.2-3.1,5-4c1-0.5,1-1,0.7-1.9c-1.3-3.5-4.1-5.4-7.6-6.2
		c-6.9-1.7-13.1,1.9-15.4,9c-1,2.8-1.4,5.8-1.8,8.8c-0.7-2.1-1.2-4.2-1.1-6.4c0.1-1.4-0.5-1.6-1.7-1.7C44.7,14.9,40.1,18.4,39,24
		c-1.4,7.1,2.4,12.2,9.9,13.5c2.9,0.5,5.9,0.8,8.8,0.6c0.4,0,1-0.5,1.1,0.4c-1.2,0.9-2.4,2-3.9,2.2c-2.2,0.3-2.5,1.6-2.7,3.4
		c-0.6,4.3-1.3,8.6-2.5,12.8c-0.9-0.1-0.4-0.9-0.5-1.3c-0.1-0.7,0.1-1.5-0.1-2.2c-0.2-3.5-0.3-7.1-0.5-10.6c0-0.9-0.2-1.4-1.4-1.6
		c-7.3-1-13.1-6.9-13.5-13.5c-0.5-7.7,5.6-14.8,13.5-15.7c1.5-0.2,3-0.2,4.5,0.1c0.7,0.1,1.1,0.1,1.4-0.7c2.1-6,6-10,12.5-11.2
		c0.1,0,0.1-0.2,0.2-0.3c0.1,0,0.2,0,0.3,0C66.9,0.4,67.8-0.1,68.6,0.3z"/>
	<path fill="#FFFFFF" d="M68.6,0.3c-0.8,0-1.7,0.4-2.5-0.3c0.8,0,1.6,0,2.4,0C68.5,0.1,68.5,0.2,68.6,0.3z"/>
	<path fill="#FFFFFF" d="M97.3,88.4c4.7,6.4,7.8,13.6,10.1,21.1c1.6,5.2,2.6,10.5,3.2,16c0.1,1.3,0.5,1.3,1.4,0.7
		c3.2-2.1,5.1-5,5.5-8.8c0.6-5.2-0.7-10.1-2.6-14.9c-3.9-9.8-9.6-18.5-15.9-27c-0.4-0.6-0.8-1.1-1.3-1.7c0.5-0.3,0.6,0,0.8,0.2
		c8.1,7.9,15.4,16.3,20.6,26.5c2.5,4.9,4.3,10.1,4,15.8c-0.4,6.9-3.6,10.3-10.6,11.1c-1.4,0.2-1.8,0.5-1.6,2
		c0.5,4.8,0.4,9.6,0.2,14.4c0,0.9-0.3,1.3-1.2,1.2c-0.3,0-0.7,0-1,0c-27.9,0-55.9,0-83.8,0c-1.6,0-2-0.4-2-2
		c-0.1-4.7-0.1-9.4,0.3-14.1c0.1-1-0.1-1.5-1.2-1.5c-0.9,0-1.8-0.2-2.7-0.5c-5.3-1.4-8-4.7-8.3-10.1c-0.4-6.2,1.5-11.8,4.3-17.1
		c5.1-9.7,12.1-17.9,20-25.4c0.3-0.1,0.5,0,0.4,0.3c-4.6,6.4-9.1,12.8-12.7,19.8c-2.9,5.5-5.3,11.2-6.3,17.4
		c-1,6.4,1.1,11.7,5.9,14.4c0.2,0.1,0.5,0.4,0.9,0.2c1.6-13.9,5.4-27,13.7-38.7c0.6,0.6,0.1,0.9,0,1.2c-4.5,10.3-7,21-8.3,32.1
		c-0.7,5.7-0.9,11.4-0.9,17.2c0,1.2,0.2,1.7,1.6,1.7c25-0.1,50.1,0,75.1,0c1.1,0,1.6-0.2,1.6-1.5c0-15.9-2.1-31.4-7.9-46.2
		c-0.5-1.2-0.9-2.3-1.4-3.5C96.8,88.4,97,88.3,97.3,88.4z"/>
	<path fill="#FFFFFF" d="M43.5,61.3c0.7-1.1,1.3-2.1,0.1-2.7c-1.1-0.6-2.2-0.2-2.8,0.9c-1.6,2.6,0.1,5.7,3.3,5.9
		c2.6,0.2,4.9-0.9,7-2.3c2.2-1.4,4.3-3,6.7-3.9c3-1.1,6-1.4,8.8,0.5c0.5,0.3,0.8,0.2,1.2,0c2.7-1.8,5.5-1.5,8.3-0.6
		c2.2,0.7,4.2,2,6.1,3.3c1.9,1.4,3.9,2.5,6.2,2.9c3.7,0.7,6.2-1.5,5.5-4.7c-0.1-0.3-0.2-0.7-0.4-1c-0.6-1.1-2-1.6-2.9-1
		c-1.1,0.8-0.5,1.7,0.2,2.6c-1.4-0.2-2.2-0.8-2.3-2c-0.1-1.3,0.7-2.2,2-2.5c2.3-0.6,4.4,0.6,5.2,2.9c1.2,3.4-0.4,7.7-3.7,10.3
		c-6.2,4.8-15.3,3.9-21-2.1c-1.5-1.6-2.7-3.3-3.8-5.3c-1.1,1.7-2.1,3.4-3.4,4.8C58.9,73,51.7,74.6,45,71.6c-4.4-2-7.1-6.1-6.7-10.4
		c0.2-3,2.3-4.8,5-4.5c1.4,0.1,2.3,0.8,2.5,2.2C46,60.3,45,60.9,43.5,61.3z"/>
	<path fill="#ED1B24" d="M67.3,72.3c2.7,0,5.2,1.9,5.7,4.5c0.2,1.1,0.7,1.3,1.6,1.6c6.5,1.5,10.6,5.6,12.4,12
		c0.3,0.9,0.3,1.4-0.9,1.3c-6-0.4-11.3-2.4-15-7.5c-0.5-0.7-0.9-0.6-1.5-0.3c-1.6,0.8-3.3,0.8-4.9,0c-0.6-0.3-0.9-0.3-1.4,0.3
		c-3.7,5.1-8.9,7.1-15,7.5c-1.1,0.1-1.3-0.3-1-1.3c1.8-6.4,5.8-10.5,12.4-12c1-0.2,1.4-0.5,1.6-1.5C62,74.1,64.5,72.3,67.3,72.3z"/>
	<path fill="#FFD800" d="M31.5,147.8c0.7,0.9,0.5,1.7,0.1,2.5c-1,2-2.4,3.8-3.9,5.5c-0.8,0.9-1.2,1.8-1.1,3c0,1.9,0.1,3.7,0.4,5.5
		c0.2,1.2-0.4,2-0.8,3.4c-1.5-2.7-1.6-5.3-1.4-8c0.1-0.9-0.1-1.4-0.8-2.1c-2.1-1.9-3.5-4.4-5.9-6.1c-0.4-0.3-0.7-0.7-0.4-1.2
		c0.3-0.6,0.9-0.1,1.2,0c2,1,3.3,2.7,4.6,4.4c0.8,1,1.2,1.3,2.2,0.1C27.6,152.4,29.5,150.2,31.5,147.8z"/>
	<path fill="#FFD800" d="M86.1,147.8c0.7,0.8,0.5,1.6,0.1,2.4c-1,2-2.4,3.8-3.9,5.5c-0.9,1-1.3,2.1-1.2,3.4c0.1,1.7,0.1,3.5,0.5,5.2
		c0.3,1.2-0.7,1.9-0.5,3.3c-1.2-1-1.3-2.1-1.5-3.1c-0.1-0.5-0.3-0.9-0.2-1.4c1.1-5.3-3.1-7.8-5.9-11c-0.1-0.1-0.2-0.1-0.3-0.2
		c-0.5-0.4-1.4-0.9-0.8-1.6c0.5-0.6,1.3,0,1.8,0.4c1.6,1,2.8,2.4,3.9,4c1,1.4,1.5,1.2,2.4,0C82.3,152.3,84.2,150.1,86.1,147.8z"/>
	<path fill="#FFD800" d="M40.8,160.2c-0.9,1.5-1.8,2.7-3,3.6c-1.2,0.9-2.2,0.7-2.9-0.5c-1.5-2.9-1-6-0.2-8.9
		c0.1-0.5,0.7-1.1,1.3-0.8c0.5,0.2,0.1,0.8,0,1.2c-0.5,2.6-0.4,5.1,0.6,7.8c2.2-2.1,4.4-4,4.2-7.3c0-0.2,0-0.4,0-0.5
		c0.1-0.5,0.1-1.3,0.8-1.3c0.6,0.1,0.8,0.7,0.8,1.4c0.1,2.1,0.1,4.3,0.3,6.4c0,0.9,0.5,1.8-0.4,2.6c-0.6,0.5-0.9,0.6-1-0.3
		C41.2,162.5,41,161.5,40.8,160.2z"/>
	<path fill="#FFD800" d="M91.3,162.5c2.3-2.2,4.4-4.1,4.3-7.4c0-0.7,0-1.7,0.7-1.7c0.8,0,0.9,1,0.9,1.8c0,2.3,0,4.6,0.3,6.9
		c0.1,0.6-0.1,1-0.4,1.4c-0.2,0.3-0.4,0.6-0.8,0.6c-0.5-0.1-0.3-0.6-0.4-0.8c-0.2-0.9-0.3-1.8-0.5-2.9c-0.9,1-1.6,2-2.6,2.9
		c-1.8,1.6-3,1.4-3.7-0.9c-0.9-2.7-0.5-5.4,0.2-8c0.2-0.6,0.7-1.1,1.6-1C90.3,156.4,90.1,159.4,91.3,162.5z"/>
	<path fill="#FFD800" d="M49.9,156.2c0-0.1,0-0.1,0-0.2c1-0.9,1.9-2.6,3.3-2c1.6,0.6,0.8,2.5,1.1,4c1-1,1.8-2,2.7-2.8
		c1.9-1.6,3.2-1.2,3.8,1.1c0.3,1.1,0.4,2.3,0.7,3.4c0.2,1-0.1,1.8-1.1,2.3c-1.1-1.8-1.1-3.9-1.6-5.9c-1.3,0.4-1.9,1.4-2.4,2.5
		c-0.5,1-0.8,2.2-1.5,3.1c-0.3,0.3-0.5,0.7-0.9,0.7c-0.5-0.1-0.5-0.6-0.6-1c-0.3-1.3-0.5-2.6-0.8-3.9c-0.5-2.3-0.5-2.3-2.3-1
		C50,156.4,49.9,156.4,49.9,156.2z"/>
	<path fill="#FFD800" d="M104.4,156.2c0-0.1,0-0.1,0-0.2c1.1-0.8,1.9-2.5,3.3-2c1.6,0.6,0.7,2.6,1.2,4c0.9-0.9,1.7-1.9,2.6-2.7
		c1.9-1.6,3.2-1.2,3.8,1.1c0.3,1.1,0.4,2.2,0.7,3.2c0.2,1.1-0.1,1.9-1.1,2.5c-1.2-1.8-1-3.9-1.6-5.9c-1.5,0.5-2.1,1.7-2.6,3
		c-0.4,0.9-0.7,2-1.4,2.8c-0.6,0.7-1.1,0.8-1.4-0.3c-0.3-1.5-0.7-3-1-4.6c-0.2-1.1-0.3-2.1-1.7-0.9c-0.1,0.1-0.3,0-0.5,0
		C104.6,156.3,104.5,156.3,104.4,156.2z"/>
	<path fill="#FFD800" d="M104.4,156.2c0.1,0,0.2,0,0.3,0c0,0.7-0.6,1.1-0.9,1.6c-0.5,1-1.4,2-1,3.3c0.2,1-0.7,1.4-1.5,1.6
		c-0.9,0.2-1-0.6-1.1-1.2c-0.5-2.8-0.9-5.7,0.4-8.5c1.2,2.2-0.3,4.8,0.9,7.2C102.3,158.8,103.1,157.3,104.4,156.2z"/>
	<path fill="#FFD800" d="M49.9,156.2c0.1,0.1,0.2,0.2,0.2,0.3c-0.9,1.5-2.3,2.8-2,4.9c0.1,0.8-0.9,1.2-1.6,1.3
		c-0.8,0.1-0.8-0.6-0.9-1.2c-0.4-2.3-0.7-4.6-0.3-6.9c0.1-0.6,0.2-1.2,0.8-1.9c0.7,1.3,0.4,2.5,0.4,3.6c0,1.2-0.1,2.4,0.4,3.8
		C47.8,158.8,48.4,157.2,49.9,156.2z"/>
	<path fill="#FFFFFF" d="M65.3,132.4c0.1-1.3,0.7-1.9,1.9-2c1.3,0,2,0.8,2,1.9c0,1.1-0.8,2-2,1.9C65.9,134.2,65.3,133.4,65.3,132.4z
		"/>
	<path fill="#FFFFFF" d="M65.3,103.7c0.1-1.1,0.7-1.8,1.9-1.8c1.3,0,2,0.8,2,1.9c0,1.1-0.8,2-2,1.9C66,105.6,65.3,104.9,65.3,103.7z
		"/>
	<path fill="#FFFFFF" d="M65.3,89.4c0.1-1.2,0.7-1.8,1.9-1.8c1.3,0,2,0.8,2,2c0,1.1-0.8,1.9-1.9,1.9C66,91.4,65.3,90.7,65.3,89.4z"
		/>
	<path fill="#FFFFFF" d="M65.3,118c0.1-1.2,0.7-1.9,1.8-1.9c1.3,0,2,0.8,2,1.9c0,1.1-0.7,1.9-1.9,1.9C66.1,120,65.4,119.3,65.3,118z
		"/>
	<path fill="#FFFFFF" d="M49.1,53.5c0.7,1.1-0.2,2.4,0.6,3.5c-0.4,0.5-0.6,0.4-0.6-0.2C49.1,55.7,49.1,54.6,49.1,53.5z"/>
	<path fill="#FFFFFF" d="M35.8,74.8c-0.1-0.1-0.3-0.2-0.4-0.3c0.4-0.6,0.8-1.1,1.7-1.2C36.7,73.7,36.3,74.2,35.8,74.8z"/>
	<path fill="#FFFFFF" d="M58.8,38.6c-0.2-0.6-0.7-0.1-1.1-0.4c0.4-0.2,0.9-0.5,1.3-0.1C59.2,38.3,59,38.5,58.8,38.6z"/>
	<path fill="#FFFFFF" d="M97.3,88.4c-0.1,0.1-0.2,0.3-0.3,0.4c-0.3-0.3-0.7-0.8-0.4-1.1C97.1,87.4,97.2,88,97.3,88.4z"/>
	<path fill="#FFFFFF" d="M130.1,173.6c-0.9,0-1.5,0.7-1.7,1.5c-0.3,1.5-0.4,3,1,4.1c0.9,0.3,1.7,0.4,2.8-0.3
		c-0.8,1.7-1.5,1.8-3.2,0.7c-1.3,1.1-0.1,1.4,0.7,1.8c0.8,0,1.5,0,2.3,0c0,0,0,0.1,0,0.1c0.8,0,1.3-0.3,1.4-1.1c0,0-0.1,0-0.1-0.1
		c0.1-1.9-0.4-3.8,0.3-5.6c0-0.2,0-0.5,0-0.7C132.4,173.8,131.2,173.6,130.1,173.6z M130.9,178.1c-1.1,0-1.3-0.8-1.2-1.8
		c-0.1-0.8,0.3-1.6,1.3-1.6c1,0,1.3,0.8,1.3,1.7C132.2,177.4,132,178.1,130.9,178.1z"/>
	<path fill="#FFFFFF" d="M0,173.9c0,1.9,0,3.7,0,5.6c0.1,0,0.2,0,0.4,0c0-1.9,0-3.7,0-5.6C0.2,173.9,0.1,173.9,0,173.9z"/>
	<path fill="#FFFFFF" d="M133.4,180c0,0.1,0,0.2,0,0.3c0.1,0,0.2,0,0.2-0.1c0-1.9,0-3.7,0-5.6C133.2,176.4,133.5,178.2,133.4,180z"
		/>
	<path fill="#FFFFFF" d="M133.2,180.2c0,0,0.1,0.1,0.1,0.1c0-0.1,0-0.2,0-0.3c0.1-1.8-0.2-3.6,0.2-5.4
		C132.8,176.5,133.4,178.4,133.2,180.2z"/>
	<path fill="#FFFFFF" d="M60.8,181.3c0,0.1,0,0.2,0.1,0.3c0.8,0,1.6,0,2.4,0c0,0-0.1-0.1,0-0.1c0-0.1,0-0.1,0.1-0.2l0,0h0
		C62.5,181.3,61.6,181.3,60.8,181.3z"/>
	<path fill="#FFFFFF" d="M83.8,181.6c0.7,0,1.4,0,2.1,0c0.1-0.1,0.2-0.2,0.1-0.3c-0.8,0-1.6,0-2.3,0
		C83.7,181.4,83.7,181.5,83.8,181.6z"/>
	<path fill="#FFFFFF" d="M129.6,181.3c0,0.1,0,0.2,0.1,0.3c0.7,0,1.4,0,2.1,0c0-0.1,0.1-0.1,0.1-0.2c-0.1,0-0.1,0-0.2,0
		C131,181.3,130.3,181.5,129.6,181.3z"/>
	<path fill="#FFFFFF" d="M129.6,181.3c0.7,0.2,1.4,0.1,2.1,0.1c0.1,0,0.1,0,0.2,0c0,0,0-0.1,0-0.1
		C131.2,181.3,130.4,181.3,129.6,181.3z"/>
	<path fill="#FFFFFF" d="M109.2,171.3c-0.5,0-0.7,0.3-0.7,0.8c0,0.6,0,1.3,0,2.1c-2.2-1.2-3.7-0.4-3.9,2c-0.1,1.2,0,2.4,1.1,3.3
		c1.2,0.9,2.6-0.5,3.9,0.1c0.2,0.1,0.3-0.4,0.3-0.7c0-2.2,0-4.5,0-6.7C110,171.6,109.7,171.3,109.2,171.3z M107.3,178.5
		c-1.2,0-1.3-0.9-1.3-1.8c0-0.9,0.1-1.9,1.2-1.9c1.1,0,1.2,1,1.3,1.8C108.5,177.5,108.6,178.5,107.3,178.5z"/>
	<path fill="#FFFFFF" d="M75.5,173.7c-0.4-0.1-0.6,0.2-0.8,0.5c-0.3,1-0.6,2-1,3.4c-0.4-1.3-0.7-2.1-1-3c-0.1-0.5-0.3-1-0.8-0.9
		c-0.4,0-0.6,0.5-0.7,0.9c-0.3,0.9-0.6,1.8-1,3.1c-0.4-1.3-0.6-2.1-0.8-2.9c-0.2-0.5-0.2-1.2-0.9-1c-0.7,0.2-0.4,0.8-0.3,1.3
		c0.4,1.3,0.9,2.5,1.3,3.8c0.2,0.5,0.3,0.9,0.9,0.9c0.5,0,0.6-0.5,0.7-0.9c0.3-0.8,0.5-1.7,0.9-2.9c0.4,1.3,0.7,2.2,1,3.1
		c0.1,0.4,0.3,0.6,0.7,0.7c0.4,0,0.6-0.2,0.7-0.6c0.5-1.5,1-3,1.5-4.4C76,174.2,76,173.8,75.5,173.7z"/>
	<path fill="#FFFFFF" d="M86.9,173.7c-0.5,0-0.7,0.3-0.7,0.8c0,0.8,0,1.6,0,2.4c0,0.8-0.3,1.3-1.2,1.3c-0.9,0-1-0.6-1.1-1.3
		c0-0.8,0-1.6,0-2.4c0-0.4-0.1-0.8-0.7-0.8c-0.4,0-0.7,0.3-0.7,0.6c0.1,1.7-0.6,3.5,0.9,4.9c1,0.4,1.9,0.4,2.8-0.6
		c-0.1,1.8-1.2,1.7-2.2,1.6c-0.5-0.1-1-0.7-1.6-0.2c0,0.8,0.5,1.2,1.2,1.3c0.8-0.7,1.6-0.7,2.3,0c0.9-0.1,1.5-0.7,1.5-1.5
		c0.1-1.8,0.1-3.7,0.1-5.6C87.6,173.9,87.3,173.6,86.9,173.7z"/>
	<path fill="#FFFFFF" d="M83.7,181.3c0.8,0,1.6,0,2.3,0C85.3,180.6,84.5,180.6,83.7,181.3z"/>
	<path fill="#FFFFFF" d="M81.4,173.8c-1.1,0.5-2.2-0.4-3.3-0.1c-1.4,0.4-2.2,2.5-1.6,4.4c0.4,1.4,1.6,2,3.1,1.5
		c0.2-0.1,0.4-0.4,0.7-0.2c1.4,0.8,1.3-0.2,1.3-1.1c0-0.5,0-1,0-1.6c0-0.7,0-1.4,0-2.1C81.8,174.2,81.6,173.7,81.4,173.8z
		 M80.4,176.8c0,0.9-0.1,1.8-1.3,1.7c-1.2-0.1-1.2-1.1-1.2-1.9c0-0.9,0.2-1.9,1.3-1.8C80.3,174.9,80.4,175.9,80.4,176.8z"/>
	<path fill="#FFFFFF" d="M54.6,176.7c0-2.1,0-2.1-1.8-2.7c-0.1,0-0.1-0.1-0.1-0.1c-1.1-0.7-2-0.4-2.8,0.4c-0.9,0.9-0.9,3.4-0.1,4.4
		c0.7,0.9,1.6,1.3,2.7,0.8c0.3-0.1,0.4-0.4,0.9-0.1c1.1,0.7,1.3-0.1,1.3-1C54.6,177.9,54.6,177.3,54.6,176.7z M52,178.5
		c-1.2,0-1.3-0.9-1.4-1.8c0-0.9,0.1-1.9,1.2-1.9c1.1,0,1.3,0.9,1.3,1.8C53.2,177.5,53.2,178.5,52,178.5z"/>
	<path fill="#FFFFFF" d="M39.9,173.5c-1.8,0-2.9,1.1-2.9,3.1c0,2,1,3.2,2.8,3.2c1.8,0,2.9-1.1,2.9-3.1
		C42.6,174.7,41.7,173.6,39.9,173.5z M39.8,178.5c-1.3,0-1.5-0.9-1.5-1.9c0-0.9,0.3-1.8,1.4-1.8c1.2,0,1.4,1,1.4,2.1
		C41.2,177.7,41,178.5,39.8,178.5z"/>
	<path fill="#FFFFFF" d="M17.8,173.5c-1.8,0-2.8,1.1-2.9,3.1c0,2,1,3.2,2.8,3.2c1.8,0,2.9-1.1,2.9-3.1
		C20.6,174.7,19.6,173.6,17.8,173.5z M17.7,178.5c-1.2,0-1.3-0.9-1.3-1.8c0-0.9,0.2-1.9,1.3-1.9c1.2-0.1,1.5,0.8,1.5,2.1
		C19.2,177.6,19,178.6,17.7,178.5z"/>
	<path fill="#FFFFFF" d="M6.9,173.6c-1.7-0.2-2.8,1-2.9,2.9c-0.1,2,0.9,3.4,2.6,3.4c0.1,0,0.2,0,0.3,0c0.9-0.2,2.1-0.4,1.8-1.4
		c-0.3-1.1-1.1,0-1.7,0.1c-0.7,0-1.6,0-1.6-0.9c0-0.9,0.9-0.3,1.4-0.5c0.7-0.2,1.7,0.5,2.1-0.6C9.5,175.3,8.3,173.7,6.9,173.6z
		 M6.5,176.2c-0.4-0.1-1.1,0.3-1-0.5c0-0.6,0.6-0.9,1.1-0.9c0.6,0,1,0.4,1,1C7.5,176.5,6.9,176.1,6.5,176.2z"/>
	<path fill="#FFFFFF" d="M93.9,173.5c-1.9,0-2.8,1-2.8,3.1c0,2.1,1,3.2,2.8,3.2c1.8,0,2.9-1.1,2.8-3.1
		C96.7,174.7,95.7,173.6,93.9,173.5z M93.8,178.5c-1.2,0-1.3-0.9-1.3-1.8c0-1,0.2-2,1.4-1.9c1.1,0,1.4,0.9,1.4,2.1
		C95.3,177.6,95.1,178.5,93.8,178.5z"/>
	<path fill="#FFFFFF" d="M115.8,173.8c-0.3,0.1-0.4,0.6-1,0.2c-0.9-0.7-1.2-0.1-1.2,0.8c0,0.6,0,1.3,0,1.9c0,0.7,0,1.4,0,2.1
		c0,0.5,0,1,0.7,1c0.6,0,0.7-0.4,0.7-0.9c0-0.9,0-1.9,0-2.8c0-0.8,0.5-1.2,1.2-1.2c0.7,0,1,0.4,1,1.1c0,0.9,0,1.9,0,2.8
		c0,0.5,0.1,0.9,0.7,1c0.7,0,0.7-0.4,0.7-0.9c0-1.1,0-2.2,0-3.3C118.5,173.9,117.3,173.1,115.8,173.8z"/>
	<path fill="#FFFFFF" d="M29,176.9c0-0.8,0-1.5,0-2.3c0-0.5,0-1-0.7-1c-0.6,0-0.7,0.4-0.7,1c0,0.7,0,1.4,0,2.1
		c0,0.8,0.1,1.7-1.1,1.8c-1.3,0.1-1.1-0.9-1.1-1.7c0-0.8,0-1.5,0-2.3c0-0.6-0.2-0.9-0.8-0.9c-0.5,0-0.6,0.4-0.6,0.9
		c0,1.2-0.1,2.3,0,3.5c0.1,1.4,1.5,2.1,2.8,1.6c0.3-0.1,0.5-0.6,1-0.2c0.9,0.7,1.2,0.2,1.2-0.8C29,178.1,29,177.5,29,176.9z"/>
	<path fill="#FFFFFF" d="M100.4,171.3c-1,0-1.9,0.3-2.3,1.5c-0.3,0.9-1.5,1.6-0.1,2.6c0.2,0.1,0,0.8,0,1.2c0,0.8,0,1.6,0,2.4
		c0,0.5,0.3,0.8,0.7,0.8c0.5,0,0.7-0.3,0.7-0.8c0-0.8,0-1.5,0-2.3c0-0.9-0.4-2.1,1.3-2c0.2,0,0.4-0.2,0.4-0.5c0-0.3-0.1-0.6-0.5-0.6
		c-0.4-0.1-0.8-0.1-1.2-0.1c0.2-0.8,0.6-1,1.1-1c0.4,0,0.9-0.1,0.8-0.7C101.3,171.3,100.9,171.2,100.4,171.3z"/>
	<path fill="#FFFFFF" d="M33.2,178.3c-0.8,0.3-1.3,0-1.1-0.8c0.2-0.8-1-2.2,0.8-2.5c0.7-0.1,1.4-0.4,0.8-1c-0.6-0.5-1.7-0.5-2-1.5
		c0,0-0.5,0.1-0.8,0.1c0.5,0.9-2.7,1.4-0.3,2.6c0.2,0.1,0.1,0.7,0.1,1c0,0.7,0,1.4,0,2.1c0,0.7,0.4,1.2,1.1,1.3
		c0.7,0.1,1.4,0.1,2-0.4c0.2-0.2,0.4-0.4,0.2-0.8C33.8,178.2,33.5,178.2,33.2,178.3z"/>
	<path fill="#FFFFFF" d="M14.1,173.7c-0.6-0.2-0.8,0.2-0.9,0.7c-0.3,0.9-0.7,1.8-1.2,2.9c-0.4-1.2-0.8-2.1-1.2-3.1
		c-0.2-0.4-0.4-0.7-0.9-0.5c-0.4,0.2-0.5,0.6-0.4,1c0.6,1.4,1.1,2.9,1.7,4.3c0.1,0.3,0.3,0.7,0.7,0.7c0.4,0,0.6-0.3,0.7-0.7
		c0.5-1.4,1.1-2.8,1.7-4.1C14.5,174.4,14.6,174,14.1,173.7z"/>
	<path fill="#FFFFFF" d="M64.8,174.7c0-0.5-0.1-1-0.7-1c-0.7,0-0.7,0.5-0.8,1.1c-0.1,1.1,0.3,2.3-0.4,3.3c0.4,0.5,1.2,1,0.3,1.7
		c-1.2,0.9-2.3,0.2-3.5,0c-0.5,1,0.2,1.3,1,1.5c0.8-0.8,1.7-0.7,2.6,0c0.9-0.3,1.4-1,1.4-1.9C64.8,177.8,64.7,176.2,64.8,174.7z"/>
	<path fill="#FFFFFF" d="M60.8,181.3c0.9,0,1.7,0,2.6,0h0C62.5,180.6,61.6,180.5,60.8,181.3z"/>
	<path fill="#FFFFFF" d="M127.5,176.1c0-1-0.1-1.9-1.1-2.3c-1-0.5-1.8-0.1-2.5,0.5c-0.5,0.5,0.4,0.4,0.3,0.7c1.4-0.5,2,0,1.9,1.4
		c0,0.8,0,1.6,0,2.4c0,0.6,0.3,0.9,0.8,0.9c0.5,0,0.6-0.4,0.6-0.9C127.5,177.9,127.5,177,127.5,176.1z"/>
	<path fill="#FFFFFF" d="M48.5,175.3c-0.2-1.5-1.4-2.2-2.8-1.6c-0.4,0.2-0.7,0.6-1.1,0.1c-0.1,0.6,0.4,0.8,0.7,1.1
		c1.4-0.5,1.9,0.1,1.9,1.5c0,0.8,0,1.5,0,2.3c0,0.5,0.1,1,0.7,1c0.6,0,0.8-0.4,0.7-0.9C48.5,177.6,48.6,176.4,48.5,175.3z"/>
	<path fill="#FFFFFF" d="M22.9,175.5c0-1,0-2.1,0-3.1c0-0.6-0.1-1.1-0.8-1.1c-0.6,0-0.6,0.5-0.6,1c0,2.1,0,4.3,0,6.4
		c0,0.5,0.1,1,0.7,1c0.6,0,0.8-0.4,0.7-0.9C22.9,177.7,22.9,176.6,22.9,175.5z"/>
	<path fill="#FFFFFF" d="M62.7,179.3c0.2-0.1,0.3-0.1,0.4-0.1c0.1-0.3-0.3-0.7-0.1-1.1c-1.4,0.4-1.9-0.2-1.8-1.6
		c0.1-0.7,0-1.5,0-2.2c0-0.4-0.3-0.6-0.7-0.6c-0.3,0-0.6,0.1-0.6,0.4c0.1,1.7-0.7,3.6,0.7,5.1C61.2,179.4,61.9,179.6,62.7,179.3z"/>
	<path fill="#FFFFFF" d="M63.1,179.2c0.2,0,0.3,0.3,0.2,0.7c0.9-0.8,0.1-1.2-0.3-1.7C62.7,178.4,63.1,178.8,63.1,179.2z"/>
	<path fill="#FFFFFF" d="M58.2,173.6c-0.7,0.3-1.3,1.1-1.9,0.1c-0.5,0-0.7,0.2-0.7,0.5c0,1.7,0,3.4,0,5c0,0.3,0.3,0.5,0.6,0.5
		c0.3,0,0.6-0.1,0.7-0.4c0.1-0.4,0.1-0.8,0.1-1.2c0-1.4-0.4-3,1.7-3.4c0.3-0.1,0.4-0.4,0.3-0.7C58.8,173.6,58.5,173.5,58.2,173.6z"
		/>
	<path fill="#FFFFFF" d="M120.5,173.6c-0.5,0-0.7,0.4-0.7,0.8c0,0.7,0,1.5,0,2.2c0,0.7,0,1.5,0,2.2c0,0.5,0.3,0.8,0.8,0.7
		c0.4,0,0.7-0.3,0.7-0.7c0-1.5,0-3.1,0-4.6C121.3,174,121,173.6,120.5,173.6z"/>
	<path fill="#FFFFFF" d="M123.5,174.5c0-0.3,0.2-0.3,0.4-0.2c-0.1-0.5-0.4-0.7-0.9-0.6c-0.5,0.1-0.5,0.5-0.5,0.9c0,1.3,0,2.7,0,4
		c0,0.5,0,1.1,0.7,1.1c0.7,0,0.6-0.6,0.7-1.1c0.1-1.2-0.3-2.4,0.3-3.6C123.9,174.9,123.5,174.9,123.5,174.5z"/>
	<path fill="#FFFFFF" d="M123.9,174.3c-0.2-0.1-0.4-0.1-0.4,0.2c0,0.4,0.4,0.5,0.7,0.5C124.3,174.7,123.4,174.7,123.9,174.3z"/>
	<path fill="#FFFFFF" d="M112.5,176.7c0-0.8,0-1.5,0-2.3c0-0.4-0.2-0.8-0.7-0.8c-0.5,0-0.7,0.3-0.7,0.8c0,1.4,0,2.9,0,4.3
		c0,0.5,0.2,0.8,0.6,0.9c0.6,0.1,0.8-0.4,0.8-0.9C112.5,178.1,112.5,177.4,112.5,176.7C112.5,176.7,112.5,176.7,112.5,176.7z"/>
	<path fill="#FFFFFF" d="M35.4,173.7c-0.5,0-0.6,0.4-0.6,0.9c0,1.4,0,2.9,0,4.3c0,0.5,0.2,0.8,0.7,0.8c0.4,0,0.8-0.2,0.8-0.8
		c0-0.7,0-1.4,0-2.1c0-0.8,0-1.5,0-2.3C36.2,174,36,173.7,35.4,173.7z"/>
	<path fill="#FFFFFF" d="M44.6,173.8c-0.9-0.4-1.1,0-1.1,0.8c0,1.3,0,2.6,0,4c0,0.6,0,1.1,0.8,1.1c0.8,0,0.6-0.7,0.6-1.2
		c0.1-1.2-0.3-2.4,0.4-3.5C44.6,174.9,44.1,174.6,44.6,173.8z"/>
	<path fill="#FFFFFF" d="M44.6,173.8c-0.5,0.8,0,1,0.7,1.1C45,174.6,44.4,174.4,44.6,173.8z"/>
	<path fill="#FFFFFF" d="M1.5,174.6c-0.1-0.7-0.2-1.3-1.1-0.7c0.9,1.9,0.8,3.7,0,5.6c0.9,0.5,1.1,0.1,1.1-0.8c0-1.1-0.1-2.3,0.3-3.4
		C1.8,175,1,175.1,1.5,174.6z"/>
	<path fill="#FFFFFF" d="M0.3,173.9c0,1.9,0,3.7,0,5.6C1.1,177.6,1.2,175.8,0.3,173.9z"/>
	<path fill="#FFFFFF" d="M3.2,173.6c-0.8-0.1-1.1,0.6-1.5,0.9c0,0-0.1,0.1-0.2,0.1c-0.1,0.3,0.6,0.3,0.3,0.8
		c0.1-0.1,0.3-0.2,0.4-0.3c0.5-0.4,1.4-0.1,1.4-1C3.6,173.8,3.4,173.6,3.2,173.6z"/>
	<path fill="#FFFFFF" d="M1.5,174.6c-0.5,0.5,0.4,0.4,0.3,0.8C2.1,174.9,1.4,174.9,1.5,174.6z"/>
	<path fill="#FFFFFF" d="M120.5,171.6c-0.4,0.1-0.8,0.4-0.7,0.8c0,0.4,0.4,0.7,0.9,0.7c0.4-0.1,0.7-0.3,0.7-0.8
		C121.2,171.8,121,171.5,120.5,171.6z"/>
	<path fill="#FFFFFF" d="M111.7,171.5c-0.3,0.1-0.7,0.2-0.7,0.7c0,0.5,0.3,0.7,0.7,0.8c0.5,0,0.8-0.2,0.8-0.7
		C112.6,171.9,112.3,171.6,111.7,171.5z"/>
	<path fill="#FFFFFF" d="M35.4,171.6c-0.5,0-0.7,0.3-0.7,0.8c0,0.4,0.3,0.6,0.7,0.6c0.5,0,0.8-0.2,0.8-0.8
		C36.2,171.8,35.8,171.6,35.4,171.6z"/>
</g>
</svg>
